<svg xmlns="http://www.w3.org/2000/svg" version="1.1" xmlns:xlink="http://www.w3.org/1999/xlink" xmlns:svgjs="http://svgjs.com/svgjs" width="512" height="512" x="0" y="0" viewBox="0 0 1000 1000" style="enable-background:new 0 0 512 512" xml:space="preserve" class=""><g><path d="m500 866.61c-56.07 0-108.95-4.51-148.88-12.69-49.9-10.23-73.12-24.69-73.12-45.53 0-24.73 33.52-36 58.74-42.27 30.66-7.67 73.17-13 119.69-15a16 16 0 0 1 1.39 32c-40.06 1.74-76.07 5.87-104.13 11.95-23.65 5.13-35.06 10.23-40.33 13.37 6.23 3.73 21.07 10.2 54.51 16.15 36.5 6.41 83.44 10.02 132.13 10.02s95.64-3.58 132.16-10.07c33.44-5.95 48.27-12.42 54.5-16.15-5.27-3.14-16.68-8.24-40.33-13.37-28.06-6.08-64.06-10.21-104.12-11.95a16 16 0 0 1 1.39-32c46.52 2 89 7.35 119.69 15 25.21 6.3 58.73 17.54 58.73 42.27 0 20.84-23.24 35.3-73.13 45.53-39.89 8.23-92.81 12.74-148.89 12.74z" fill="#ffffff" data-original="#000000" class=""></path><path d="m542.9 824.39h-85.8a16 16 0 0 1 -16-16v-124.92a16 16 0 0 1 16-16h85.8a16 16 0 0 1 16 16v124.92a16 16 0 0 1 -16 16zm-69.8-32h53.8v-92.92h-53.8z" fill="#ffffff" data-original="#000000" class=""></path><path d="m900 699.47h-800a16 16 0 0 1 -16-16v-534.08a16 16 0 0 1 16-16h800a16 16 0 0 1 16 16v534.08a16 16 0 0 1 -16 16zm-784-32h768v-502.08h-768z" fill="#ffffff" data-original="#000000" class=""></path><path d="m315.9 553.77c-75.73 0-137.34-61.61-137.34-137.34s61.61-137.34 137.34-137.34 137.34 61.61 137.34 137.34-61.61 137.34-137.34 137.34zm0-242.68a105.34 105.34 0 1 0 105.34 105.34 105.47 105.47 0 0 0 -105.34-105.34z" fill="#ffffff" data-original="#000000" class=""></path><path d="m437.24 432.43h-121.34a16 16 0 0 1 -16-16v-121.34a16 16 0 0 1 32 0v105.34h105.34a16 16 0 0 1 0 32z" fill="#ffffff" data-original="#000000" class=""></path><path d="m376.58 537.53a16 16 0 0 1 -13.87-8l-60.71-105.1a16 16 0 0 1 27.72-16l60.67 105.1a16 16 0 0 1 -13.85 24z" fill="#ffffff" data-original="#000000" class=""></path><path d="m802.53 572.13a16 16 0 0 1 -16-16v-96.13a16 16 0 0 1 32 0v96.16a16 16 0 0 1 -16 15.97z" fill="#ffffff" data-original="#000000" class=""></path><path d="m724.54 572.13a16 16 0 0 1 -16-16v-96.6a16 16 0 0 1 32 0v96.6a16 16 0 0 1 -16 16z" fill="#ffffff" data-original="#000000" class=""></path><path d="m560.52 572.13a16 16 0 0 1 -16-16v-85.13a16 16 0 0 1 32 0v85.15a16 16 0 0 1 -16 15.98z" fill="#ffffff" data-original="#000000" class=""></path><path d="m643.84 572.13a16 16 0 0 1 -16-16v-129.36a16 16 0 0 1 32 0v129.36a16 16 0 0 1 -16 16z" fill="#ffffff" data-original="#000000" class=""></path><path d="m560.52 399.76a16 16 0 0 1 -11.32-27.31l68.94-69a16 16 0 0 1 21.07-1.39l66.89 51.37 88-88a16 16 0 0 1 22.65 22.57l-97.95 98a16 16 0 0 1 -17.44 3.47 15.75 15.75 0 0 1 -3.85-2.27l-66.66-51.2-59 59.06a16 16 0 0 1 -11.33 4.7z" fill="#ffffff" data-original="#000000" class=""></path><path d="m801.24 358.56c-.34 0-.69 0-1 0a16 16 0 0 1 -14.94-17l3-47.69-47.68 3.06a16 16 0 0 1 -2-31.94l65.84-4.21a16 16 0 0 1 17 17l-4.21 65.83a16 16 0 0 1 -16.01 14.95z" fill="#ffffff" data-original="#000000" class=""></path></g></svg>